<svg 
 xmlns="http://www.w3.org/2000/svg"
 xmlns:xlink="http://www.w3.org/1999/xlink"
 width="500px" height="345px">
<path fill-rule="evenodd"  fill="rgb(255, 210, 0)"
 d="M-0.000,345.000 L-0.000,0.000 L500.000,0.000 L500.000,345.000 L-0.000,345.000 ZM87.374,106.760 L81.613,106.760 L81.613,103.978 L77.308,103.978 L77.308,106.760 L70.737,106.760 L70.737,110.351 L87.374,110.351 C88.248,110.351 88.377,109.834 88.377,108.571 C88.377,107.343 88.248,106.760 87.374,106.760 ZM72.453,117.338 C72.453,120.735 75.528,123.355 79.476,123.355 C83.426,123.355 86.500,120.735 86.500,117.338 C86.500,113.942 83.426,111.289 79.476,111.289 C75.528,111.289 72.453,113.942 72.453,117.338 ZM88.766,125.134 L70.317,125.134 L70.317,128.920 L88.766,128.920 C89.640,128.920 89.769,128.305 89.769,127.043 C89.769,125.814 89.640,125.134 88.766,125.134 ZM95.369,104.528 L90.902,104.528 L90.902,131.281 C90.902,132.025 91.743,132.187 93.103,132.187 C94.559,132.187 95.369,131.992 95.369,131.248 L95.369,104.528 ZM125.498,152.569 L111.184,152.569 L111.184,183.708 L81.313,183.708 L81.313,152.569 L67.000,152.569 L67.000,227.094 C67.000,229.482 69.800,230.001 74.157,230.001 C78.617,230.001 81.313,229.482 81.313,226.990 L81.313,196.371 L111.184,196.371 L111.184,227.094 C111.184,229.482 113.985,230.001 118.341,230.001 C122.801,230.001 125.498,229.482 125.498,226.990 L125.498,152.569 ZM137.150,160.490 C133.656,162.648 136.477,183.209 145.268,197.236 C145.483,197.581 145.717,197.887 145.943,198.209 C139.430,207.901 137.611,218.971 139.685,220.874 C142.077,223.069 156.830,216.298 165.365,206.416 C165.678,206.054 165.956,205.686 166.227,205.317 C166.292,205.283 166.370,205.256 166.433,205.221 C170.108,203.193 172.553,192.493 166.099,181.928 C156.919,166.899 140.645,158.332 137.150,160.490 ZM177.805,127.593 C177.805,123.549 174.179,120.508 169.712,120.508 C165.246,120.508 161.621,123.549 161.621,127.593 C161.621,131.636 165.246,134.677 169.712,134.677 C174.179,134.677 177.805,131.636 177.805,127.593 ZM169.907,104.949 L155.245,104.949 L155.245,114.750 C155.245,115.462 155.892,116.465 156.572,117.144 C157.284,117.855 158.417,118.632 159.226,118.632 L167.608,118.632 C169.162,118.632 169.907,117.695 169.907,116.174 L169.907,104.949 ZM183.404,109.704 L178.517,109.704 L178.517,104.205 L174.114,104.205 L174.114,119.603 C174.114,120.379 174.956,120.606 176.316,120.606 C177.674,120.606 178.517,120.379 178.517,119.603 L178.517,113.424 L183.404,113.424 L183.404,109.704 ZM203.348,160.274 C199.855,158.109 183.589,166.706 174.413,181.789 C168.550,191.426 170.042,201.154 173.120,204.376 C173.546,205.047 174.014,205.712 174.574,206.363 C183.105,216.280 197.850,223.075 200.241,220.872 C202.284,218.991 200.547,208.174 194.265,198.551 C194.597,198.102 194.925,197.646 195.234,197.151 C204.021,183.074 206.840,162.440 203.348,160.274 ZM247.682,107.051 C242.762,107.051 239.266,110.447 239.266,115.526 C239.266,120.606 242.762,124.002 247.682,124.002 C252.601,124.002 256.130,120.606 256.130,115.526 C256.130,110.447 252.601,107.051 247.682,107.051 ZM263.606,104.528 L259.139,104.528 L259.139,131.281 C259.139,132.025 259.980,132.187 261.341,132.187 C262.796,132.187 263.606,131.992 263.606,131.248 L263.606,104.528 ZM246.366,152.569 L215.768,152.569 L215.768,227.094 C215.768,229.482 218.569,230.001 222.925,230.001 C227.385,230.001 230.082,229.482 230.082,226.990 L230.082,200.938 L246.781,200.938 C265.139,200.938 272.607,190.350 272.607,176.753 C272.607,162.845 265.139,152.569 246.366,152.569 ZM282.683,216.196 C282.683,218.479 284.861,221.904 287.143,224.084 C289.528,226.368 293.262,229.066 295.958,229.066 L332.675,229.066 C335.476,229.066 335.890,226.783 335.890,222.735 C335.890,218.791 335.476,216.403 332.675,216.403 L299.070,216.403 C297.825,216.403 296.996,215.988 296.996,214.535 L296.996,195.852 L329.564,195.852 C332.364,195.852 332.779,193.568 332.779,189.520 C332.779,185.576 332.364,183.189 329.564,183.189 L296.996,183.189 L296.996,165.232 L331.949,165.232 C334.749,165.232 335.164,162.948 335.164,158.900 C335.164,154.956 334.749,152.569 331.949,152.569 L282.683,152.569 L282.683,216.196 ZM339.117,115.721 C337.562,114.297 335.266,111.806 334.132,109.672 C333.647,108.733 333.453,107.601 333.453,106.599 L333.453,104.463 L328.856,104.463 L328.856,106.599 C328.856,108.151 328.662,109.057 327.886,110.480 C326.881,112.227 325.037,114.362 322.900,116.271 C322.092,117.015 322.513,117.402 323.516,118.470 C324.551,119.538 325.134,119.667 325.750,119.150 C327.626,117.629 329.893,115.009 331.348,112.583 C332.578,114.815 334.812,117.144 336.494,118.599 C337.142,119.182 337.628,118.988 338.631,117.921 C339.668,116.789 339.731,116.336 339.117,115.721 ZM332.513,124.002 L332.513,121.058 L328.145,121.058 L328.145,130.310 C328.145,130.925 328.791,131.863 329.504,132.542 C330.216,133.286 331.220,133.998 332.093,133.998 L344.717,133.998 C346.302,133.998 347.047,133.124 347.047,131.636 L347.047,121.058 L342.677,121.058 L342.677,124.002 L332.513,124.002 ZM347.402,104.205 L343.001,104.205 L343.001,118.503 C343.001,119.279 343.842,119.505 345.201,119.505 C346.561,119.505 347.402,119.279 347.402,118.503 L347.402,104.205 ZM389.321,216.403 L365.050,216.403 L375.422,204.778 C381.957,197.305 390.773,185.783 390.773,175.508 C390.773,158.900 378.741,151.116 365.154,151.116 C358.620,151.116 352.915,153.295 348.663,154.852 L348.663,167.619 C354.886,165.543 360.072,163.779 365.154,163.779 C371.896,163.779 376.459,167.619 376.459,175.404 C376.459,184.434 367.955,193.257 361.835,200.003 L345.759,217.856 L345.759,229.066 L389.321,229.066 C392.121,229.066 392.536,226.783 392.536,222.735 C392.536,218.791 392.121,216.403 389.321,216.403 ZM413.816,104.334 C409.187,104.334 405.950,107.504 405.950,111.289 C405.950,115.074 409.187,118.244 413.816,118.244 C418.476,118.244 421.714,115.074 421.714,111.289 C421.714,107.504 418.476,104.334 413.816,104.334 ZM430.873,104.205 L426.472,104.205 L426.472,117.824 C426.472,118.599 427.313,118.826 428.671,118.826 C430.032,118.826 430.873,118.599 430.873,117.824 L430.873,104.205 ZM430.745,130.568 L416.762,130.568 C416.211,130.568 416.018,130.213 416.018,129.824 L416.018,128.628 L430.549,128.628 L430.549,121.252 C430.549,120.282 430.225,120.023 429.191,120.023 L411.616,120.023 L411.616,123.453 L426.179,123.453 L426.179,125.263 L411.616,125.263 L411.616,130.795 C411.616,131.378 412.165,132.154 412.909,132.866 C413.525,133.448 414.333,133.998 415.046,133.998 L430.745,133.998 C431.424,133.998 431.521,133.415 431.521,132.283 C431.521,131.281 431.424,130.568 430.745,130.568 ZM433.000,152.673 L418.687,152.673 L405.514,158.900 L405.514,171.771 L418.687,165.647 L418.687,227.094 C418.687,229.482 421.487,230.001 425.843,230.001 C430.303,230.001 433.000,229.482 433.000,226.990 L433.000,152.673 ZM413.816,114.588 C411.744,114.588 410.224,113.068 410.224,111.289 C410.224,109.510 411.744,107.989 413.816,107.989 C415.921,107.989 417.441,109.510 417.441,111.289 C417.441,113.068 415.921,114.588 413.816,114.588 ZM342.677,130.342 L332.934,130.342 C332.675,130.342 332.513,130.181 332.513,129.857 L332.513,127.593 L342.677,127.593 L342.677,130.342 ZM246.781,188.275 L230.082,188.275 L230.082,165.232 L246.469,165.232 C254.663,165.232 258.293,169.072 258.293,176.753 C258.293,184.434 254.767,188.275 246.781,188.275 ZM247.682,120.282 C245.319,120.282 243.604,118.437 243.604,115.526 C243.604,112.648 245.319,110.771 247.682,110.771 C250.044,110.771 251.759,112.648 251.759,115.526 C251.759,118.437 250.044,120.282 247.682,120.282 ZM159.549,114.329 L159.549,108.571 L165.602,108.571 L165.602,115.009 L160.229,115.009 C159.744,115.009 159.549,114.783 159.549,114.329 ZM169.712,124.099 C172.011,124.099 173.402,125.684 173.402,127.593 C173.402,129.502 172.011,131.086 169.712,131.086 C167.415,131.086 166.023,129.502 166.023,127.593 C166.023,125.684 167.415,124.099 169.712,124.099 ZM82.195,117.338 C82.195,118.794 80.998,119.765 79.476,119.765 C77.956,119.765 76.758,118.794 76.758,117.338 C76.758,115.883 77.956,114.815 79.476,114.815 C80.998,114.815 82.195,115.883 82.195,117.338 Z"/>
</svg>