<svg
 xmlns="http://www.w3.org/2000/svg"
 xmlns:xlink="http://www.w3.org/1999/xlink"
 width="520px" height="212px">
<path fill-rule="evenodd"  fill="rgb(255, 255, 255)"
 d="M0.000,212.000 L0.000,-0.000 L520.000,-0.000 L520.000,212.000 L0.000,212.000 ZM93.000,127.000 C89.243,110.301 77.595,100.078 62.000,100.000 C46.405,99.922 38.000,112.000 38.000,112.000 C38.000,112.000 37.161,105.405 37.000,103.000 C36.839,100.595 37.440,63.320 38.000,60.000 C38.560,56.680 42.361,53.440 42.000,49.000 C41.640,44.560 36.806,41.772 35.000,40.000 L34.000,35.000 C34.000,35.000 35.662,34.806 36.000,32.000 C36.338,29.194 34.000,29.000 34.000,29.000 C34.000,29.000 33.019,27.820 34.000,26.000 C34.981,24.180 35.798,20.771 33.000,15.000 C30.202,9.229 30.000,7.000 30.000,7.000 C30.000,7.000 28.592,13.315 27.000,16.000 C25.408,18.685 24.000,22.000 24.000,22.000 C24.000,22.000 24.024,25.792 25.000,27.000 C23.292,28.123 21.958,29.903 21.988,31.757 C21.990,31.838 21.993,31.919 22.000,32.000 C22.157,33.941 23.000,34.000 23.000,34.000 L23.000,37.000 C23.000,37.000 21.733,36.610 21.000,37.000 C20.267,37.390 20.000,40.000 20.000,40.000 C20.000,40.000 15.917,38.856 15.000,40.000 C14.083,41.144 14.000,46.000 14.000,46.000 C14.000,46.000 11.664,46.423 11.000,47.000 C10.336,47.577 11.000,51.000 11.000,51.000 C11.000,51.000 9.563,50.594 9.000,52.000 C7.692,55.268 14.000,59.000 14.000,59.000 C14.000,59.000 14.588,66.204 17.000,69.000 C17.000,69.000 14.927,86.675 14.000,95.000 C13.073,103.325 11.562,136.718 12.000,146.000 C12.438,155.282 16.593,191.540 17.000,192.000 C17.197,192.223 28.013,191.862 28.013,191.862 L28.000,200.000 L25.000,201.000 L26.000,202.000 L29.000,201.000 L29.520,191.794 C29.520,191.794 39.823,191.210 40.000,191.000 C40.375,190.554 37.192,152.718 38.000,146.000 C39.313,135.077 46.895,131.067 55.000,131.000 C63.105,130.933 72.270,142.903 73.000,149.000 C73.730,155.097 71.241,178.869 68.000,187.000 C68.000,187.000 68.151,189.000 70.000,189.000 C72.313,189.000 79.424,188.630 79.424,188.630 L79.000,197.000 L84.000,197.000 L84.000,196.000 L80.000,195.000 L80.909,188.532 L89.000,188.000 C89.000,188.000 98.989,153.615 93.000,127.000 ZM175.000,143.000 C174.119,112.747 155.433,103.197 142.000,103.000 C128.567,102.803 103.214,117.295 103.000,146.000 C102.823,169.766 113.005,183.819 126.341,187.815 C126.539,187.874 126.000,200.000 126.000,200.000 L123.000,201.000 L123.000,202.000 L127.000,202.000 C127.000,202.000 127.849,188.221 127.960,188.247 C130.238,188.782 132.596,189.033 135.000,189.000 C137.229,188.969 139.561,188.685 141.931,188.149 C142.101,188.111 142.000,202.000 142.000,202.000 L146.000,202.000 L147.000,201.000 L143.000,200.000 C143.000,200.000 143.515,187.756 143.822,187.670 C159.341,183.318 175.737,168.327 175.000,143.000 ZM243.000,104.000 C226.409,98.570 217.382,111.044 217.000,114.000 C215.695,120.068 220.421,120.442 221.000,121.000 C220.791,122.174 218.817,122.545 217.000,123.000 C215.183,123.455 213.726,126.228 212.000,126.000 C212.000,126.000 211.335,113.021 212.000,102.000 C212.119,100.021 212.353,93.992 198.000,97.000 C193.211,98.004 190.691,101.330 190.000,104.000 C189.450,106.125 189.027,124.827 189.000,131.000 C188.973,137.173 189.839,146.984 190.000,154.000 C190.283,166.330 187.270,181.188 187.000,190.000 C186.972,190.900 187.805,191.607 191.000,192.000 C191.515,192.063 193.080,192.224 195.111,192.340 C195.753,192.376 195.000,202.000 195.000,202.000 L192.000,203.000 L196.000,203.000 C196.000,203.000 196.109,192.391 196.314,192.400 C199.318,192.530 202.993,192.526 205.820,192.024 C205.981,191.995 206.000,203.000 206.000,203.000 L209.000,203.000 L209.000,202.000 L207.000,202.000 C207.000,202.000 206.725,191.839 206.785,191.824 C207.658,191.615 208.415,191.345 209.000,191.000 C213.053,188.613 215.182,184.579 215.000,180.000 C214.818,175.421 211.567,144.920 213.000,138.000 C214.707,127.056 221.000,126.000 221.000,126.000 C221.000,126.000 220.173,134.338 229.000,134.000 C237.827,133.662 234.306,129.329 241.000,131.000 C247.694,132.671 244.449,143.920 241.000,147.000 C237.551,150.080 233.041,152.974 222.000,152.000 C215.652,151.440 215.679,156.455 216.000,158.000 C216.321,159.545 217.817,159.999 219.000,160.000 C220.183,160.001 222.003,159.485 222.000,158.000 C221.997,156.405 221.048,155.320 219.918,155.272 C218.787,155.223 217.835,155.594 218.000,157.000 C218.743,156.052 219.329,155.806 220.000,156.000 C220.671,156.194 221.102,157.207 221.000,158.000 C220.898,158.793 219.776,158.945 219.000,159.000 C217.690,159.092 217.063,158.245 217.000,158.000 C216.006,154.130 219.358,153.096 220.000,153.000 C220.874,152.869 223.946,152.787 224.380,152.940 C227.010,153.869 231.476,155.135 236.000,155.000 C245.906,154.704 256.188,144.536 258.000,136.000 C259.812,127.464 259.591,109.430 243.000,104.000 ZM310.000,112.000 C282.869,109.058 269.995,130.561 270.000,146.000 C270.004,158.413 276.748,172.326 291.117,178.239 C291.293,178.311 291.000,193.000 291.000,193.000 L295.000,193.000 L294.000,192.000 L292.000,192.000 C292.000,192.000 292.089,178.622 292.149,178.645 C295.392,179.862 299.006,180.681 303.000,181.000 C305.879,181.230 308.544,181.026 311.004,180.497 C311.368,180.418 312.000,194.000 312.000,194.000 L316.000,194.000 L316.000,193.000 L313.000,193.000 C313.000,193.000 312.917,180.008 313.041,179.971 C328.399,175.345 335.000,158.000 335.000,158.000 L322.000,154.000 C319.513,158.821 312.979,166.288 303.000,166.000 C293.021,165.712 287.184,155.615 287.000,150.000 C286.979,149.367 287.010,147.651 287.102,146.880 C302.410,147.402 330.182,146.223 332.000,146.000 C333.818,145.777 337.000,145.000 337.000,145.000 C337.000,145.000 337.131,114.942 310.000,112.000 ZM509.000,184.000 C508.872,181.927 505.116,118.120 505.000,108.000 C504.884,97.880 505.085,82.828 505.000,80.000 C504.915,77.172 504.760,75.962 502.000,76.000 C499.240,76.038 483.000,76.000 483.000,76.000 C483.000,76.000 479.501,87.496 471.238,97.708 C471.159,97.805 471.080,97.903 471.000,98.000 C470.148,99.039 472.801,100.030 474.000,100.000 C475.199,99.970 480.000,99.000 480.000,99.000 C480.000,99.000 480.779,128.829 481.000,135.000 C481.221,141.171 482.873,164.913 483.000,167.000 C483.127,169.087 482.389,169.967 480.000,170.000 C477.611,170.033 430.800,170.010 429.000,170.000 C427.200,169.990 427.006,168.000 427.000,166.000 C426.993,164.000 429.811,156.760 433.000,153.000 C436.189,149.240 458.040,134.581 457.000,112.000 C455.960,89.419 437.163,84.533 431.000,84.000 C405.420,81.787 392.576,103.049 393.000,114.000 C393.424,124.951 395.825,125.919 395.000,131.000 C394.175,136.081 390.066,139.191 390.000,140.000 C389.934,140.809 392.498,141.903 396.000,141.000 C399.502,140.097 410.926,129.645 412.000,116.000 C412.056,115.290 413.676,116.157 414.000,114.000 C414.808,108.609 424.003,105.809 429.000,109.000 C432.206,111.048 432.969,122.061 422.000,135.000 C411.031,147.939 396.345,164.788 398.000,184.000 C398.365,188.231 401.000,189.000 401.000,189.000 C401.000,189.000 414.159,188.880 431.163,188.723 C431.289,188.722 431.000,199.000 431.000,199.000 L426.000,199.000 L427.000,200.000 L432.000,200.000 C432.000,200.000 431.978,188.716 432.028,188.715 C448.326,188.565 467.963,188.382 482.915,188.239 C483.078,188.237 484.000,198.000 484.000,198.000 L481.000,198.000 L481.000,199.000 L485.000,199.000 C485.000,199.000 483.862,188.229 483.906,188.229 C496.275,188.110 505.220,188.020 506.000,188.000 C508.725,187.932 509.128,186.073 509.000,184.000 ZM304.000,132.000 C319.797,131.978 321.000,144.000 321.000,144.000 C318.815,144.060 287.000,145.000 287.000,145.000 C287.256,144.078 288.203,132.022 304.000,132.000 ZM143.000,157.000 L153.000,168.000 C150.994,171.110 142.000,175.000 142.000,175.000 L143.000,157.000 ZM146.000,116.000 C146.000,116.000 157.932,121.484 162.000,134.000 C165.650,145.232 159.000,160.000 159.000,160.000 L143.000,145.000 C142.610,141.157 146.000,116.000 146.000,116.000 ZM118.000,158.000 C118.000,158.000 113.771,144.693 119.000,133.000 C124.229,121.307 135.000,117.000 135.000,117.000 C135.000,117.000 131.997,140.620 132.000,145.000 L118.000,158.000 ZM129.000,175.000 C124.260,173.375 121.000,168.000 121.000,168.000 L131.000,158.000 L129.000,175.000 Z"/>
</svg>
