<svg
 xmlns="http://www.w3.org/2000/svg"
 xmlns:xlink="http://www.w3.org/1999/xlink"
 width="501px" height="196px">
<path fill-rule="evenodd"  fill="rgb(255, 255, 255)"
 d="M498.000,181.000 C497.220,181.020 488.275,181.110 475.906,181.229 C475.862,181.229 477.000,192.000 477.000,192.000 L473.000,192.000 L473.000,191.000 L476.000,191.000 C476.000,191.000 475.078,181.237 474.915,181.239 C459.963,181.382 440.326,181.565 424.028,181.715 C423.978,181.716 424.000,193.000 424.000,193.000 L419.000,193.000 L418.000,192.000 L423.000,192.000 C423.000,192.000 423.289,181.722 423.163,181.723 C406.159,181.880 393.000,182.000 393.000,182.000 C393.000,182.000 390.365,181.231 390.000,177.000 C388.345,157.788 403.031,140.939 414.000,128.000 C424.969,115.061 424.206,104.048 421.000,102.000 C416.003,98.809 406.808,101.609 406.000,107.000 C405.676,109.157 404.056,108.290 404.000,109.000 C402.926,122.645 391.502,133.097 388.000,134.000 C384.498,134.903 381.934,133.809 382.000,133.000 C382.066,132.191 386.175,129.081 387.000,124.000 C387.825,118.919 385.424,117.951 385.000,107.000 C384.576,96.049 397.420,74.787 423.000,77.000 C429.163,77.533 447.960,82.419 449.000,105.000 C450.040,127.581 428.189,142.240 425.000,146.000 C421.811,149.760 418.993,157.000 419.000,159.000 C419.006,161.000 419.200,162.990 421.000,163.000 C422.800,163.010 469.611,163.033 472.000,163.000 C474.389,162.967 475.127,162.087 475.000,160.000 C474.873,157.913 473.221,134.171 473.000,128.000 C472.779,121.829 472.000,92.000 472.000,92.000 C472.000,92.000 467.199,92.970 466.000,93.000 C464.801,93.030 462.148,92.039 463.000,91.000 C463.080,90.903 463.159,90.805 463.238,90.708 C471.501,80.496 475.000,69.000 475.000,69.000 C475.000,69.000 491.240,69.038 494.000,69.000 C496.760,68.962 496.915,70.172 497.000,73.000 C497.085,75.828 496.884,90.880 497.000,101.000 C497.116,111.120 500.872,174.927 501.000,177.000 C501.128,179.073 500.725,180.932 498.000,181.000 ZM499.261,56.066 L480.327,56.066 L480.327,53.866 L499.261,53.866 C499.646,53.866 499.805,54.252 499.805,54.977 C499.805,55.726 499.646,56.066 499.261,56.066 ZM495.225,51.962 C494.454,51.962 493.978,51.803 493.978,51.440 L493.978,47.744 L483.003,47.744 L483.003,45.544 L493.978,45.544 L493.978,43.028 C493.978,42.438 493.751,42.279 493.252,42.279 L483.003,42.279 L483.003,40.080 L493.887,40.080 C494.386,40.080 495.134,40.579 495.610,41.077 C496.064,41.531 496.494,42.189 496.494,42.597 L496.494,51.440 C496.494,51.803 496.041,51.962 495.225,51.962 ZM476.089,57.925 C475.363,57.925 474.819,57.766 474.819,57.404 L474.819,54.887 L470.443,54.887 L470.443,52.687 L474.819,52.687 L474.819,38.742 L477.336,38.742 L477.336,57.404 C477.336,57.766 476.815,57.925 476.089,57.925 ZM472.960,51.327 L467.518,51.327 L467.518,57.177 C467.518,57.540 466.996,57.698 466.271,57.698 C465.545,57.698 465.001,57.540 465.001,57.177 L465.001,51.327 L459.922,51.327 L459.922,49.127 L472.960,49.127 C473.345,49.127 473.504,49.513 473.504,50.238 C473.504,50.987 473.345,51.327 472.960,51.327 ZM466.361,47.993 C463.459,47.993 461.123,45.930 461.123,43.209 C461.123,40.488 463.459,38.424 466.361,38.424 C469.241,38.424 471.577,40.488 471.577,43.209 C471.577,45.930 469.241,47.993 466.361,47.993 ZM466.361,40.465 C464.706,40.465 463.618,41.576 463.618,43.209 C463.618,44.842 464.706,45.953 466.361,45.953 C467.994,45.953 469.082,44.842 469.082,43.209 C469.082,41.576 467.994,40.465 466.361,40.465 ZM457.996,56.066 L439.063,56.066 L439.063,53.889 L457.996,53.889 C458.382,53.889 458.540,54.252 458.540,54.977 C458.540,55.726 458.382,56.066 457.996,56.066 ZM455.026,50.850 L444.618,50.850 C444.119,50.850 443.371,50.329 442.895,49.830 C442.441,49.377 442.010,48.719 442.010,48.311 L442.010,40.080 L454.686,40.080 C455.071,40.080 455.230,40.465 455.230,41.191 C455.230,41.939 455.071,42.257 454.686,42.257 L444.527,42.257 L444.527,44.343 L454.459,44.343 C454.844,44.343 455.003,44.728 455.003,45.454 C455.003,46.202 454.844,46.520 454.459,46.520 L444.527,46.520 L444.527,47.993 C444.527,48.492 444.663,48.674 445.230,48.674 L455.026,48.674 C455.411,48.674 455.570,49.059 455.570,49.785 C455.570,50.533 455.411,50.850 455.026,50.850 ZM435.323,57.925 C434.484,57.925 434.076,57.744 434.076,57.404 L434.076,38.742 L436.570,38.742 L436.570,57.404 C436.570,57.744 436.185,57.925 435.323,57.925 ZM430.856,57.698 C430.017,57.698 429.609,57.517 429.609,57.177 L429.609,46.497 L425.505,46.497 L425.505,44.297 L429.609,44.297 L429.609,38.969 L432.081,38.969 L432.081,57.177 C432.081,57.517 431.718,57.698 430.856,57.698 ZM428.044,51.621 C428.044,52.347 427.886,52.710 427.500,52.710 L421.423,52.710 C420.788,52.710 420.380,52.324 419.904,51.825 C419.451,51.372 419.042,50.805 419.042,50.397 L419.042,40.307 L421.559,40.307 L421.559,49.830 C421.559,50.374 421.809,50.510 422.240,50.510 L427.500,50.510 C427.886,50.510 428.044,50.918 428.044,51.621 ZM409.771,56.066 L390.837,56.066 L390.837,53.866 L399.205,53.866 L399.205,50.442 L396.257,50.442 C395.758,50.442 395.010,49.943 394.533,49.445 C394.080,48.991 393.649,48.334 393.649,47.925 L393.649,39.830 L396.166,39.830 L396.166,43.096 L404.760,43.096 L404.760,39.830 L407.277,39.830 L407.277,48.968 C407.277,49.898 406.846,50.442 405.916,50.442 L401.721,50.442 L401.721,53.866 L409.771,53.866 C410.157,53.866 410.315,54.252 410.315,54.977 C410.315,55.726 410.157,56.066 409.771,56.066 ZM404.760,48.265 L404.760,45.272 L396.166,45.272 L396.166,47.517 C396.166,48.107 396.393,48.265 396.892,48.265 L404.760,48.265 ZM387.755,59.172 L377.574,59.172 C377.075,59.172 376.327,58.651 375.851,58.152 C375.397,57.698 374.967,57.041 374.967,56.633 L374.967,51.757 L377.484,51.757 L377.484,56.224 C377.484,56.723 377.756,56.973 378.186,56.973 L387.755,56.973 C388.141,56.973 388.300,57.381 388.300,58.084 C388.300,58.877 388.095,59.172 387.755,59.172 ZM386.554,52.914 C385.760,52.914 385.329,52.732 385.329,52.392 L385.329,38.515 L387.846,38.515 L387.846,52.392 C387.846,52.778 387.257,52.914 386.554,52.914 ZM380.749,49.898 C379.252,48.810 377.552,46.837 376.735,45.091 C375.896,47.132 373.765,49.286 372.427,50.284 C372.110,50.533 371.792,50.420 371.180,49.762 C370.658,49.195 370.386,48.900 370.704,48.628 C373.085,46.656 375.103,44.479 375.239,41.440 L371.384,41.440 L371.384,39.263 L381.338,39.263 C381.724,39.263 381.883,39.649 381.883,40.375 C381.883,41.123 381.724,41.440 381.338,41.440 L377.869,41.440 C378.050,44.297 380.295,46.520 382.268,48.265 C382.563,48.515 382.381,48.787 381.837,49.377 C381.225,50.057 381.044,50.102 380.749,49.898 ZM360.616,59.172 L350.435,59.172 C349.936,59.172 349.188,58.651 348.711,58.152 C348.258,57.698 347.827,57.041 347.827,56.633 L347.827,51.757 L350.344,51.757 L350.344,56.224 C350.344,56.723 350.616,56.973 351.047,56.973 L360.616,56.973 C361.001,56.973 361.160,57.381 361.160,58.084 C361.160,58.877 360.956,59.172 360.616,59.172 ZM359.414,52.914 C358.620,52.914 358.190,52.732 358.190,52.392 L358.190,38.515 L360.707,38.515 L360.707,52.392 C360.707,52.778 360.117,52.914 359.414,52.914 ZM349.006,49.513 C345.673,49.513 343.655,47.177 343.655,44.275 C343.655,41.372 345.673,39.037 349.006,39.037 C352.339,39.037 354.357,41.372 354.357,44.275 C354.357,47.177 352.339,49.513 349.006,49.513 ZM349.006,41.191 C347.192,41.191 346.149,42.642 346.149,44.275 C346.149,45.907 347.192,47.358 349.006,47.358 C350.820,47.358 351.863,45.907 351.863,44.275 C351.863,42.642 350.820,41.191 349.006,41.191 ZM339.394,53.073 C339.394,53.458 338.827,53.594 338.124,53.594 C337.331,53.594 336.877,53.413 336.877,53.073 L336.877,38.515 L339.394,38.515 L339.394,44.547 L342.727,44.547 L342.727,46.724 L339.394,46.724 L339.394,53.073 ZM334.247,42.529 L323.113,42.529 L323.113,40.465 L327.558,40.465 L327.558,38.356 L330.165,38.356 L330.165,40.465 L334.247,40.465 C334.632,40.465 334.791,40.783 334.791,41.508 C334.791,42.257 334.632,42.529 334.247,42.529 ZM311.801,57.404 C311.801,57.789 311.234,57.925 310.531,57.925 C309.738,57.925 309.284,57.744 309.284,57.404 L309.284,38.742 L311.801,38.742 L311.801,45.363 L315.134,45.363 L315.134,47.563 L311.801,47.563 L311.801,57.404 ZM306.835,53.050 L298.491,53.050 C297.992,53.050 297.244,52.528 296.768,52.030 C296.314,51.576 295.883,50.918 295.883,50.510 L295.883,40.307 L305.566,40.307 C305.951,40.307 306.110,40.715 306.110,41.418 C306.110,42.143 305.951,42.506 305.566,42.506 L298.400,42.506 L298.400,50.102 C298.400,50.624 298.582,50.850 299.103,50.850 L306.835,50.850 C307.221,50.850 307.380,51.259 307.380,51.962 C307.380,52.687 307.221,53.050 306.835,53.050 ZM291.169,57.404 C291.169,57.789 290.602,57.925 289.899,57.925 C289.105,57.925 288.652,57.744 288.652,57.404 L288.652,38.742 L291.169,38.742 L291.169,45.363 L294.502,45.363 L294.502,47.563 L291.169,47.563 L291.169,57.404 ZM286.226,52.937 L278.108,52.937 C277.609,52.937 276.861,52.415 276.385,51.916 C275.931,51.463 275.500,50.805 275.500,50.397 L275.500,40.307 L278.017,40.307 L278.017,49.989 C278.017,50.510 278.199,50.737 278.720,50.737 L286.226,50.737 C286.611,50.737 286.770,51.145 286.770,51.848 C286.770,52.574 286.611,52.937 286.226,52.937 ZM270.922,57.925 C270.083,57.925 269.675,57.744 269.675,57.404 L269.675,47.563 L267.339,47.563 L267.339,57.177 C267.339,57.517 266.977,57.698 266.115,57.698 C265.276,57.698 264.868,57.517 264.868,57.177 L264.868,38.969 L267.339,38.969 L267.339,45.363 L269.675,45.363 L269.675,38.742 L272.169,38.742 L272.169,57.404 C272.169,57.744 271.784,57.925 270.922,57.925 ZM256.274,54.546 C255.956,54.773 255.684,54.751 255.140,53.957 C254.664,53.277 254.437,53.027 254.777,52.778 C256.931,51.236 258.859,49.445 259.743,47.857 L255.117,47.857 L255.117,45.658 L260.650,45.658 C260.990,44.796 261.104,43.776 261.104,43.322 C261.104,42.801 260.945,42.506 260.401,42.506 L255.140,42.506 L255.140,40.307 L260.968,40.307 C261.535,40.307 262.056,40.851 262.668,41.644 C263.235,42.393 263.485,42.982 263.485,43.390 C263.485,45.000 262.895,47.245 261.829,48.991 C260.514,51.123 258.451,53.095 256.274,54.546 ZM228.000,148.000 C223.476,148.135 219.010,146.869 216.380,145.940 C215.946,145.787 212.874,145.869 212.000,146.000 C211.358,146.096 208.006,147.130 209.000,151.000 C209.063,151.245 209.690,152.092 211.000,152.000 C211.776,151.945 212.898,151.793 213.000,151.000 C213.102,150.207 212.671,149.194 212.000,149.000 C211.329,148.806 210.743,149.052 210.000,150.000 C209.835,148.594 210.787,148.223 211.918,148.272 C213.048,148.320 213.997,149.405 214.000,151.000 C214.003,152.485 212.183,153.001 211.000,153.000 C209.817,152.999 208.321,152.545 208.000,151.000 C207.679,149.455 207.652,144.440 214.000,145.000 C225.041,145.974 229.551,143.080 233.000,140.000 C236.449,136.920 239.694,125.671 233.000,124.000 C226.306,122.329 229.827,126.662 221.000,127.000 C212.173,127.338 213.000,119.000 213.000,119.000 C213.000,119.000 206.707,120.056 205.000,131.000 C203.567,137.920 206.818,168.421 207.000,173.000 C207.182,177.579 205.053,181.613 201.000,184.000 C200.415,184.345 199.658,184.615 198.785,184.824 C198.725,184.839 199.000,195.000 199.000,195.000 L201.000,195.000 L201.000,196.000 L198.000,196.000 C198.000,196.000 197.981,184.995 197.820,185.024 C194.993,185.526 191.318,185.530 188.314,185.400 C188.109,185.391 188.000,196.000 188.000,196.000 L184.000,196.000 L187.000,195.000 C187.000,195.000 187.753,185.376 187.111,185.340 C185.080,185.224 183.515,185.063 183.000,185.000 C179.805,184.607 178.972,183.900 179.000,183.000 C179.270,174.188 182.283,159.330 182.000,147.000 C181.839,139.984 180.973,130.173 181.000,124.000 C181.027,117.827 181.450,99.125 182.000,97.000 C182.691,94.330 185.211,91.004 190.000,90.000 C204.353,86.992 204.119,93.021 204.000,95.000 C203.335,106.021 204.000,119.000 204.000,119.000 C205.726,119.228 207.183,116.455 209.000,116.000 C210.817,115.545 212.791,115.174 213.000,114.000 C212.421,113.442 207.695,113.068 209.000,107.000 C209.382,104.044 218.409,91.570 235.000,97.000 C251.591,102.430 251.812,120.464 250.000,129.000 C248.188,137.536 237.906,147.704 228.000,148.000 ZM135.822,180.670 C135.515,180.756 135.000,193.000 135.000,193.000 L139.000,194.000 L138.000,195.000 L134.000,195.000 C134.000,195.000 134.101,181.111 133.931,181.149 C131.561,181.685 129.229,181.969 127.000,182.000 C124.596,182.033 122.238,181.782 119.960,181.247 C119.849,181.221 119.000,195.000 119.000,195.000 L115.000,195.000 L115.000,194.000 L118.000,193.000 C118.000,193.000 118.539,180.874 118.341,180.815 C105.005,176.819 94.823,162.766 95.000,139.000 C95.214,110.295 120.567,95.803 134.000,96.000 C147.433,96.197 166.119,105.747 167.000,136.000 C167.737,161.327 151.341,176.318 135.822,180.670 ZM121.000,168.000 L123.000,151.000 L113.000,161.000 C113.000,161.000 116.260,166.375 121.000,168.000 ZM111.000,126.000 C105.771,137.693 110.000,151.000 110.000,151.000 L124.000,138.000 C123.997,133.620 127.000,110.000 127.000,110.000 C127.000,110.000 116.229,114.307 111.000,126.000 ZM154.000,127.000 C149.932,114.484 138.000,109.000 138.000,109.000 C138.000,109.000 134.610,134.157 135.000,138.000 L151.000,153.000 C151.000,153.000 157.650,138.232 154.000,127.000 ZM135.000,150.000 L134.000,168.000 C134.000,168.000 142.994,164.110 145.000,161.000 L135.000,150.000 ZM72.909,181.532 L72.000,188.000 L76.000,189.000 L76.000,190.000 L71.000,190.000 L71.424,181.630 C71.424,181.630 64.313,182.000 62.000,182.000 C60.151,182.000 60.000,180.000 60.000,180.000 C63.241,171.869 65.730,148.097 65.000,142.000 C64.270,135.903 55.105,123.933 47.000,124.000 C38.895,124.067 31.313,128.077 30.000,139.000 C29.192,145.718 32.375,183.554 32.000,184.000 C31.823,184.210 21.520,184.794 21.520,184.794 L21.000,194.000 L18.000,195.000 L17.000,194.000 L20.000,193.000 L20.013,184.862 C20.013,184.862 9.197,185.223 9.000,185.000 C8.593,184.540 4.438,148.282 4.000,139.000 C3.562,129.718 5.073,96.325 6.000,88.000 C6.927,79.675 9.000,62.000 9.000,62.000 C6.588,59.204 6.000,52.000 6.000,52.000 C6.000,52.000 -0.308,48.268 1.000,45.000 C1.563,43.594 3.000,44.000 3.000,44.000 C3.000,44.000 2.336,40.577 3.000,40.000 C3.664,39.423 6.000,39.000 6.000,39.000 C6.000,39.000 6.083,34.144 7.000,33.000 C7.917,31.856 12.000,33.000 12.000,33.000 C12.000,33.000 12.267,30.390 13.000,30.000 C13.733,29.610 15.000,30.000 15.000,30.000 L15.000,27.000 C15.000,27.000 14.157,26.941 14.000,25.000 C13.993,24.919 13.990,24.838 13.988,24.757 C13.958,22.903 15.292,21.123 17.000,20.000 C16.024,18.792 16.000,15.000 16.000,15.000 C16.000,15.000 17.408,11.685 19.000,9.000 C20.592,6.315 22.000,-0.000 22.000,-0.000 C22.000,-0.000 22.202,2.229 25.000,8.000 C27.798,13.771 26.981,17.180 26.000,19.000 C25.019,20.820 26.000,22.000 26.000,22.000 C26.000,22.000 28.338,22.194 28.000,25.000 C27.662,27.806 26.000,28.000 26.000,28.000 L27.000,33.000 C28.806,34.772 33.640,37.560 34.000,42.000 C34.361,46.440 30.560,49.680 30.000,53.000 C29.440,56.320 28.839,93.595 29.000,96.000 C29.161,98.405 30.000,105.000 30.000,105.000 C30.000,105.000 38.405,92.922 54.000,93.000 C69.595,93.078 81.243,103.301 85.000,120.000 C90.989,146.615 81.000,181.000 81.000,181.000 L72.909,181.532 ZM262.000,139.000 C261.995,123.561 274.869,102.058 302.000,105.000 C329.131,107.942 329.000,138.000 329.000,138.000 C329.000,138.000 325.818,138.777 324.000,139.000 C322.182,139.223 294.410,140.402 279.102,139.880 C279.010,140.651 278.979,142.367 279.000,143.000 C279.184,148.615 285.021,158.712 295.000,159.000 C304.979,159.288 311.513,151.821 314.000,147.000 L327.000,151.000 C327.000,151.000 320.399,168.345 305.041,172.971 C304.917,173.008 305.000,186.000 305.000,186.000 L308.000,186.000 L308.000,187.000 L304.000,187.000 C304.000,187.000 303.368,173.418 303.004,173.497 C300.544,174.026 297.879,174.230 295.000,174.000 C291.006,173.681 287.392,172.862 284.149,171.645 C284.089,171.622 284.000,185.000 284.000,185.000 L286.000,185.000 L287.000,186.000 L283.000,186.000 C283.000,186.000 283.293,171.311 283.117,171.239 C268.748,165.326 262.004,151.413 262.000,139.000 ZM313.000,137.000 C313.000,137.000 311.797,124.978 296.000,125.000 C280.203,125.022 279.256,137.078 279.000,138.000 C279.000,138.000 310.815,137.060 313.000,137.000 ZM324.224,47.472 C324.224,44.978 326.333,43.345 328.963,43.345 C331.594,43.345 333.702,44.978 333.702,47.472 C333.702,49.966 331.594,51.599 328.963,51.599 C326.333,51.599 324.224,49.966 324.224,47.472 ZM331.208,47.472 C331.208,46.383 330.369,45.386 328.941,45.386 C327.558,45.386 326.719,46.383 326.719,47.472 C326.719,48.538 327.558,49.558 328.941,49.558 C330.369,49.558 331.208,48.538 331.208,47.472 ZM327.399,58.152 C326.945,57.698 326.514,57.041 326.514,56.633 L326.514,52.664 L329.009,52.664 L329.009,56.224 C329.009,56.723 329.281,56.973 329.712,56.973 L339.303,56.973 C339.689,56.973 339.847,57.381 339.847,58.084 C339.847,58.877 339.643,59.172 339.303,59.172 L329.122,59.172 C328.623,59.172 327.875,58.651 327.399,58.152 Z"/>
</svg>
