<svg 
 xmlns="http://www.w3.org/2000/svg"
 xmlns:xlink="http://www.w3.org/1999/xlink"
 width="96px" height="89px">
<path fill-rule="evenodd"  fill="rgb(255, 210, 0)"
 d="M44.099,35.928 C34.919,20.899 18.645,12.332 15.150,14.490 C11.656,16.648 14.477,37.209 23.268,51.236 C23.483,51.581 23.717,51.887 23.943,52.209 C17.430,61.901 15.611,72.971 17.685,74.874 C20.077,77.069 34.830,70.298 43.365,60.416 C43.678,60.054 43.956,59.686 44.227,59.317 C44.292,59.283 44.370,59.256 44.433,59.221 C48.108,57.193 50.553,46.493 44.099,35.928 ZM81.348,14.274 C77.855,12.109 61.589,20.706 52.413,35.789 C46.550,45.426 48.042,55.154 51.120,58.376 C51.546,59.047 52.014,59.712 52.574,60.363 C61.105,70.280 75.850,77.075 78.241,74.872 C80.284,72.991 78.547,62.174 72.265,52.551 C72.597,52.102 72.925,51.646 73.234,51.151 C82.021,37.074 84.840,16.440 81.348,14.274 ZM0.000,-0.000 L96.000,-0.000 L96.000,89.000 L0.000,89.000 L0.000,-0.000 Z"/>
</svg>